<svg xmlns="http://www.w3.org/2000/svg" width="150" height="150" viewBox="0 0 150 150" xmlns:xlink="http://www.w3.org/1999/xlink">
  <defs>
    <path id="b" d="M754.5,602.666667 L710.111111,648 L713.888889,651.777778 L754.072515,610.739181 L771.5,628.166667 L776.222222,623.444444 L776.181582,623.405571 L816.833333,581.888889 L813.055556,578.111111 L772.320757,619.712608 L754.5,602.666667 Z M695,548.848342 C695,537.886405 703.883981,529 714.848342,529 L811.151658,529 C822.113595,529 831,537.883981 831,548.848342 L831,645.151658 C831,656.113595 822.116019,665 811.151658,665 L714.848342,665 C703.886405,665 695,656.116019 695,645.151658 L695,548.848342 Z M727.347222,556.388889 L722.388889,556.388889 L722.388889,566.305556 L712.472222,566.305556 L712.472222,571.263889 L722.388889,571.263889 L722.388889,581.180556 L727.347222,581.180556 L727.347222,571.263889 L737.263889,571.263889 L737.263889,566.305556 L727.347222,566.305556 L727.347222,556.388889 Z M738.503472,551.628889 L738.503472,556.140972 L744.701389,554.901389 L744.701389,581.180556 L749.659722,581.180556 L749.659722,548.951389 L738.503472,551.628889 Z"/>
    <filter id="a" width="200%" height="200%" x="-50%" y="-50%" filterUnits="objectBoundingBox">
      <feOffset in="SourceAlpha" result="shadowOffsetOuter1"/>
      <feGaussianBlur stdDeviation="3.5" in="shadowOffsetOuter1" result="shadowBlurOuter1"/>
      <feColorMatrix values="0 0 0 0 1 0 0 0 0 1 0 0 0 0 1 0 0 0 1 0" in="shadowBlurOuter1"/>
    </filter>
  </defs>
  <g fill="none" fill-rule="evenodd" transform="translate(-688 -522)">
    <use fill="black" filter="url(#a)" xlink:href="#b"/>
    <use fill="#FFFFFF" xlink:href="#b"/>
  </g>
</svg>
